<mxfile host="Electron" modified="2024-04-23T19:16:11.336Z" agent="Mozilla/5.0 (Macintosh; Intel Mac OS X 10_15_7) AppleWebKit/537.36 (KHTML, like Gecko) draw.io/23.0.2 Chrome/120.0.6099.109 Electron/28.1.0 Safari/537.36" etag="k4WY_vxAn4aeLnRQ263G" version="23.0.2" type="device">
  <diagram name="Page-1" id="eXgVf0LizYnfglm8cgJX">
    <mxGraphModel dx="1741" dy="709" grid="1" gridSize="10" guides="1" tooltips="1" connect="1" arrows="1" fold="1" page="0" pageScale="1" pageWidth="850" pageHeight="1100" math="0" shadow="0">
      <root>
        <mxCell id="0" />
        <mxCell id="1" parent="0" />
        <mxCell id="8kHbCz_opkoACt62hEL4-138" value="" style="group" vertex="1" connectable="0" parent="1">
          <mxGeometry x="480" y="370" width="1605" height="1468" as="geometry" />
        </mxCell>
        <mxCell id="8kHbCz_opkoACt62hEL4-67" value="SolverInterface" style="swimlane;fontStyle=1;align=center;verticalAlign=top;childLayout=stackLayout;horizontal=1;startSize=26;horizontalStack=0;resizeParent=1;resizeParentMax=0;resizeLast=0;collapsible=1;marginBottom=0;whiteSpace=wrap;html=1;" vertex="1" parent="8kHbCz_opkoACt62hEL4-138">
          <mxGeometry x="560" y="550" width="240" height="190" as="geometry" />
        </mxCell>
        <mxCell id="8kHbCz_opkoACt62hEL4-68" value="- board: Board" style="text;strokeColor=none;fillColor=none;align=left;verticalAlign=top;spacingLeft=4;spacingRight=4;overflow=hidden;rotatable=0;points=[[0,0.5],[1,0.5]];portConstraint=eastwest;whiteSpace=wrap;html=1;" vertex="1" parent="8kHbCz_opkoACt62hEL4-67">
          <mxGeometry y="26" width="240" height="26" as="geometry" />
        </mxCell>
        <mxCell id="8kHbCz_opkoACt62hEL4-71" value="- solvers: Dict[str, SolverStrategy]" style="text;strokeColor=none;fillColor=none;align=left;verticalAlign=top;spacingLeft=4;spacingRight=4;overflow=hidden;rotatable=0;points=[[0,0.5],[1,0.5]];portConstraint=eastwest;whiteSpace=wrap;html=1;" vertex="1" parent="8kHbCz_opkoACt62hEL4-67">
          <mxGeometry y="52" width="240" height="26" as="geometry" />
        </mxCell>
        <mxCell id="8kHbCz_opkoACt62hEL4-72" value="- current_solver: SolverStrategy" style="text;strokeColor=none;fillColor=none;align=left;verticalAlign=top;spacingLeft=4;spacingRight=4;overflow=hidden;rotatable=0;points=[[0,0.5],[1,0.5]];portConstraint=eastwest;whiteSpace=wrap;html=1;" vertex="1" parent="8kHbCz_opkoACt62hEL4-67">
          <mxGeometry y="78" width="240" height="26" as="geometry" />
        </mxCell>
        <mxCell id="8kHbCz_opkoACt62hEL4-69" value="" style="line;strokeWidth=1;fillColor=none;align=left;verticalAlign=middle;spacingTop=-1;spacingLeft=3;spacingRight=3;rotatable=0;labelPosition=right;points=[];portConstraint=eastwest;strokeColor=inherit;" vertex="1" parent="8kHbCz_opkoACt62hEL4-67">
          <mxGeometry y="104" width="240" height="8" as="geometry" />
        </mxCell>
        <mxCell id="8kHbCz_opkoACt62hEL4-70" value="+ get_flags_placed(): int" style="text;strokeColor=none;fillColor=none;align=left;verticalAlign=top;spacingLeft=4;spacingRight=4;overflow=hidden;rotatable=0;points=[[0,0.5],[1,0.5]];portConstraint=eastwest;whiteSpace=wrap;html=1;" vertex="1" parent="8kHbCz_opkoACt62hEL4-67">
          <mxGeometry y="112" width="240" height="26" as="geometry" />
        </mxCell>
        <mxCell id="8kHbCz_opkoACt62hEL4-73" value="+ get_solver(solver_key: str): None" style="text;strokeColor=none;fillColor=none;align=left;verticalAlign=top;spacingLeft=4;spacingRight=4;overflow=hidden;rotatable=0;points=[[0,0.5],[1,0.5]];portConstraint=eastwest;whiteSpace=wrap;html=1;" vertex="1" parent="8kHbCz_opkoACt62hEL4-67">
          <mxGeometry y="138" width="240" height="26" as="geometry" />
        </mxCell>
        <mxCell id="8kHbCz_opkoACt62hEL4-74" value="+ solve(): None" style="text;strokeColor=none;fillColor=none;align=left;verticalAlign=top;spacingLeft=4;spacingRight=4;overflow=hidden;rotatable=0;points=[[0,0.5],[1,0.5]];portConstraint=eastwest;whiteSpace=wrap;html=1;" vertex="1" parent="8kHbCz_opkoACt62hEL4-67">
          <mxGeometry y="164" width="240" height="26" as="geometry" />
        </mxCell>
        <mxCell id="8kHbCz_opkoACt62hEL4-121" value="" style="group" vertex="1" connectable="0" parent="8kHbCz_opkoACt62hEL4-138">
          <mxGeometry width="430" height="1153" as="geometry" />
        </mxCell>
        <mxCell id="GPG2XtoRdds_Y4jV5bU0-3" value="Board" style="swimlane;fontStyle=1;align=center;verticalAlign=top;childLayout=stackLayout;horizontal=1;startSize=26;horizontalStack=0;resizeParent=1;resizeParentMax=0;resizeLast=0;collapsible=1;marginBottom=0;whiteSpace=wrap;html=1;" parent="8kHbCz_opkoACt62hEL4-121" vertex="1">
          <mxGeometry width="430" height="632" as="geometry">
            <mxRectangle width="80" height="30" as="alternateBounds" />
          </mxGeometry>
        </mxCell>
        <mxCell id="GPG2XtoRdds_Y4jV5bU0-4" value="- size: tuple" style="text;strokeColor=none;fillColor=none;align=left;verticalAlign=top;spacingLeft=4;spacingRight=4;overflow=hidden;rotatable=0;points=[[0,0.5],[1,0.5]];portConstraint=eastwest;whiteSpace=wrap;html=1;" parent="GPG2XtoRdds_Y4jV5bU0-3" vertex="1">
          <mxGeometry y="26" width="430" height="26" as="geometry" />
        </mxCell>
        <mxCell id="GPG2XtoRdds_Y4jV5bU0-5" value="- won: bool" style="text;strokeColor=none;fillColor=none;align=left;verticalAlign=top;spacingLeft=4;spacingRight=4;overflow=hidden;rotatable=0;points=[[0,0.5],[1,0.5]];portConstraint=eastwest;whiteSpace=wrap;html=1;" parent="GPG2XtoRdds_Y4jV5bU0-3" vertex="1">
          <mxGeometry y="52" width="430" height="26" as="geometry" />
        </mxCell>
        <mxCell id="GPG2XtoRdds_Y4jV5bU0-90" value="- lost: bool" style="text;strokeColor=none;fillColor=none;align=left;verticalAlign=top;spacingLeft=4;spacingRight=4;overflow=hidden;rotatable=0;points=[[0,0.5],[1,0.5]];portConstraint=eastwest;whiteSpace=wrap;html=1;" parent="GPG2XtoRdds_Y4jV5bU0-3" vertex="1">
          <mxGeometry y="78" width="430" height="26" as="geometry" />
        </mxCell>
        <mxCell id="GPG2XtoRdds_Y4jV5bU0-91" value="- initialized: bool" style="text;strokeColor=none;fillColor=none;align=left;verticalAlign=top;spacingLeft=4;spacingRight=4;overflow=hidden;rotatable=0;points=[[0,0.5],[1,0.5]];portConstraint=eastwest;whiteSpace=wrap;html=1;" parent="GPG2XtoRdds_Y4jV5bU0-3" vertex="1">
          <mxGeometry y="104" width="430" height="26" as="geometry" />
        </mxCell>
        <mxCell id="GPG2XtoRdds_Y4jV5bU0-92" value="- mine_count: int" style="text;strokeColor=none;fillColor=none;align=left;verticalAlign=top;spacingLeft=4;spacingRight=4;overflow=hidden;rotatable=0;points=[[0,0.5],[1,0.5]];portConstraint=eastwest;whiteSpace=wrap;html=1;" parent="GPG2XtoRdds_Y4jV5bU0-3" vertex="1">
          <mxGeometry y="130" width="430" height="26" as="geometry" />
        </mxCell>
        <mxCell id="GPG2XtoRdds_Y4jV5bU0-6" value="- board: List[List[Space]]" style="text;strokeColor=none;fillColor=none;align=left;verticalAlign=top;spacingLeft=4;spacingRight=4;overflow=hidden;rotatable=0;points=[[0,0.5],[1,0.5]];portConstraint=eastwest;whiteSpace=wrap;html=1;" parent="GPG2XtoRdds_Y4jV5bU0-3" vertex="1">
          <mxGeometry y="156" width="430" height="26" as="geometry" />
        </mxCell>
        <mxCell id="GPG2XtoRdds_Y4jV5bU0-7" value="" style="line;strokeWidth=1;fillColor=none;align=left;verticalAlign=middle;spacingTop=-1;spacingLeft=3;spacingRight=3;rotatable=0;labelPosition=right;points=[];portConstraint=eastwest;strokeColor=inherit;" parent="GPG2XtoRdds_Y4jV5bU0-3" vertex="1">
          <mxGeometry y="182" width="430" height="8" as="geometry" />
        </mxCell>
        <mxCell id="8kHbCz_opkoACt62hEL4-1" value="+ __init__ (size: tuple, mine_count: int): None" style="text;strokeColor=none;fillColor=none;align=left;verticalAlign=top;spacingLeft=4;spacingRight=4;overflow=hidden;rotatable=0;points=[[0,0.5],[1,0.5]];portConstraint=eastwest;whiteSpace=wrap;html=1;" vertex="1" parent="GPG2XtoRdds_Y4jV5bU0-3">
          <mxGeometry y="190" width="430" height="26" as="geometry" />
        </mxCell>
        <mxCell id="GPG2XtoRdds_Y4jV5bU0-9" value="+ initialize_mines(positions: List[tuple]): None" style="text;strokeColor=none;fillColor=none;align=left;verticalAlign=top;spacingLeft=4;spacingRight=4;overflow=hidden;rotatable=0;points=[[0,0.5],[1,0.5]];portConstraint=eastwest;whiteSpace=wrap;html=1;" parent="GPG2XtoRdds_Y4jV5bU0-3" vertex="1">
          <mxGeometry y="216" width="430" height="26" as="geometry" />
        </mxCell>
        <mxCell id="GPG2XtoRdds_Y4jV5bU0-10" value="+ handle_click(piece: Space, flag: bool): None" style="text;strokeColor=none;fillColor=none;align=left;verticalAlign=top;spacingLeft=4;spacingRight=4;overflow=hidden;rotatable=0;points=[[0,0.5],[1,0.5]];portConstraint=eastwest;whiteSpace=wrap;html=1;" parent="GPG2XtoRdds_Y4jV5bU0-3" vertex="1">
          <mxGeometry y="242" width="430" height="26" as="geometry" />
        </mxCell>
        <mxCell id="GPG2XtoRdds_Y4jV5bU0-11" value="+ reveal_all_non_flagged_squares(): None" style="text;strokeColor=none;fillColor=none;align=left;verticalAlign=top;spacingLeft=4;spacingRight=4;overflow=hidden;rotatable=0;points=[[0,0.5],[1,0.5]];portConstraint=eastwest;whiteSpace=wrap;html=1;" parent="GPG2XtoRdds_Y4jV5bU0-3" vertex="1">
          <mxGeometry y="268" width="430" height="26" as="geometry" />
        </mxCell>
        <mxCell id="GPG2XtoRdds_Y4jV5bU0-12" value="+ get_total_mine_count(): int" style="text;strokeColor=none;fillColor=none;align=left;verticalAlign=top;spacingLeft=4;spacingRight=4;overflow=hidden;rotatable=0;points=[[0,0.5],[1,0.5]];portConstraint=eastwest;whiteSpace=wrap;html=1;" parent="GPG2XtoRdds_Y4jV5bU0-3" vertex="1">
          <mxGeometry y="294" width="430" height="26" as="geometry" />
        </mxCell>
        <mxCell id="GPG2XtoRdds_Y4jV5bU0-13" value="+ count_flags(): int" style="text;strokeColor=none;fillColor=none;align=left;verticalAlign=top;spacingLeft=4;spacingRight=4;overflow=hidden;rotatable=0;points=[[0,0.5],[1,0.5]];portConstraint=eastwest;whiteSpace=wrap;html=1;" parent="GPG2XtoRdds_Y4jV5bU0-3" vertex="1">
          <mxGeometry y="320" width="430" height="26" as="geometry" />
        </mxCell>
        <mxCell id="GPG2XtoRdds_Y4jV5bU0-14" value="+ print_board(): None" style="text;strokeColor=none;fillColor=none;align=left;verticalAlign=top;spacingLeft=4;spacingRight=4;overflow=hidden;rotatable=0;points=[[0,0.5],[1,0.5]];portConstraint=eastwest;whiteSpace=wrap;html=1;" parent="GPG2XtoRdds_Y4jV5bU0-3" vertex="1">
          <mxGeometry y="346" width="430" height="26" as="geometry" />
        </mxCell>
        <mxCell id="GPG2XtoRdds_Y4jV5bU0-15" value="+ get_board(): List[List[Space]]" style="text;strokeColor=none;fillColor=none;align=left;verticalAlign=top;spacingLeft=4;spacingRight=4;overflow=hidden;rotatable=0;points=[[0,0.5],[1,0.5]];portConstraint=eastwest;whiteSpace=wrap;html=1;" parent="GPG2XtoRdds_Y4jV5bU0-3" vertex="1">
          <mxGeometry y="372" width="430" height="26" as="geometry" />
        </mxCell>
        <mxCell id="8kHbCz_opkoACt62hEL4-2" value="+ get_size(): tuple" style="text;strokeColor=none;fillColor=none;align=left;verticalAlign=top;spacingLeft=4;spacingRight=4;overflow=hidden;rotatable=0;points=[[0,0.5],[1,0.5]];portConstraint=eastwest;whiteSpace=wrap;html=1;" vertex="1" parent="GPG2XtoRdds_Y4jV5bU0-3">
          <mxGeometry y="398" width="430" height="26" as="geometry" />
        </mxCell>
        <mxCell id="8kHbCz_opkoACt62hEL4-3" value="+ get_piece(index: tuple): Space" style="text;strokeColor=none;fillColor=none;align=left;verticalAlign=top;spacingLeft=4;spacingRight=4;overflow=hidden;rotatable=0;points=[[0,0.5],[1,0.5]];portConstraint=eastwest;whiteSpace=wrap;html=1;" vertex="1" parent="GPG2XtoRdds_Y4jV5bU0-3">
          <mxGeometry y="424" width="430" height="26" as="geometry" />
        </mxCell>
        <mxCell id="8kHbCz_opkoACt62hEL4-4" value="+ check_won(): bool" style="text;strokeColor=none;fillColor=none;align=left;verticalAlign=top;spacingLeft=4;spacingRight=4;overflow=hidden;rotatable=0;points=[[0,0.5],[1,0.5]];portConstraint=eastwest;whiteSpace=wrap;html=1;" vertex="1" parent="GPG2XtoRdds_Y4jV5bU0-3">
          <mxGeometry y="450" width="430" height="26" as="geometry" />
        </mxCell>
        <mxCell id="8kHbCz_opkoACt62hEL4-5" value="+ get_won(): bool" style="text;strokeColor=none;fillColor=none;align=left;verticalAlign=top;spacingLeft=4;spacingRight=4;overflow=hidden;rotatable=0;points=[[0,0.5],[1,0.5]];portConstraint=eastwest;whiteSpace=wrap;html=1;" vertex="1" parent="GPG2XtoRdds_Y4jV5bU0-3">
          <mxGeometry y="476" width="430" height="26" as="geometry" />
        </mxCell>
        <mxCell id="8kHbCz_opkoACt62hEL4-6" value="+ get_lost(): bool" style="text;strokeColor=none;fillColor=none;align=left;verticalAlign=top;spacingLeft=4;spacingRight=4;overflow=hidden;rotatable=0;points=[[0,0.5],[1,0.5]];portConstraint=eastwest;whiteSpace=wrap;html=1;" vertex="1" parent="GPG2XtoRdds_Y4jV5bU0-3">
          <mxGeometry y="502" width="430" height="26" as="geometry" />
        </mxCell>
        <mxCell id="8kHbCz_opkoACt62hEL4-7" value="+ set_neighbors(): None" style="text;strokeColor=none;fillColor=none;align=left;verticalAlign=top;spacingLeft=4;spacingRight=4;overflow=hidden;rotatable=0;points=[[0,0.5],[1,0.5]];portConstraint=eastwest;whiteSpace=wrap;html=1;" vertex="1" parent="GPG2XtoRdds_Y4jV5bU0-3">
          <mxGeometry y="528" width="430" height="26" as="geometry" />
        </mxCell>
        <mxCell id="8kHbCz_opkoACt62hEL4-8" value="+ add_to_neighbors_list(neighbors: List[Space], row: int, col: int): None" style="text;strokeColor=none;fillColor=none;align=left;verticalAlign=top;spacingLeft=4;spacingRight=4;overflow=hidden;rotatable=0;points=[[0,0.5],[1,0.5]];portConstraint=eastwest;whiteSpace=wrap;html=1;" vertex="1" parent="GPG2XtoRdds_Y4jV5bU0-3">
          <mxGeometry y="554" width="430" height="26" as="geometry" />
        </mxCell>
        <mxCell id="8kHbCz_opkoACt62hEL4-9" value="+ set_num_around(): None" style="text;strokeColor=none;fillColor=none;align=left;verticalAlign=top;spacingLeft=4;spacingRight=4;overflow=hidden;rotatable=0;points=[[0,0.5],[1,0.5]];portConstraint=eastwest;whiteSpace=wrap;html=1;" vertex="1" parent="GPG2XtoRdds_Y4jV5bU0-3">
          <mxGeometry y="580" width="430" height="26" as="geometry" />
        </mxCell>
        <mxCell id="8kHbCz_opkoACt62hEL4-10" value="+ is_board_opened(): bool" style="text;strokeColor=none;fillColor=none;align=left;verticalAlign=top;spacingLeft=4;spacingRight=4;overflow=hidden;rotatable=0;points=[[0,0.5],[1,0.5]];portConstraint=eastwest;whiteSpace=wrap;html=1;" vertex="1" parent="GPG2XtoRdds_Y4jV5bU0-3">
          <mxGeometry y="606" width="430" height="26" as="geometry" />
        </mxCell>
        <mxCell id="8kHbCz_opkoACt62hEL4-45" value="Space" style="swimlane;fontStyle=1;align=center;verticalAlign=top;childLayout=stackLayout;horizontal=1;startSize=26;horizontalStack=0;resizeParent=1;resizeParentMax=0;resizeLast=0;collapsible=1;marginBottom=0;whiteSpace=wrap;html=1;" vertex="1" parent="8kHbCz_opkoACt62hEL4-121">
          <mxGeometry x="70" y="703" width="290" height="450" as="geometry" />
        </mxCell>
        <mxCell id="8kHbCz_opkoACt62hEL4-46" value="- has_bomb: bool" style="text;strokeColor=none;fillColor=none;align=left;verticalAlign=top;spacingLeft=4;spacingRight=4;overflow=hidden;rotatable=0;points=[[0,0.5],[1,0.5]];portConstraint=eastwest;whiteSpace=wrap;html=1;" vertex="1" parent="8kHbCz_opkoACt62hEL4-45">
          <mxGeometry y="26" width="290" height="26" as="geometry" />
        </mxCell>
        <mxCell id="8kHbCz_opkoACt62hEL4-49" value="- around: int" style="text;strokeColor=none;fillColor=none;align=left;verticalAlign=top;spacingLeft=4;spacingRight=4;overflow=hidden;rotatable=0;points=[[0,0.5],[1,0.5]];portConstraint=eastwest;whiteSpace=wrap;html=1;" vertex="1" parent="8kHbCz_opkoACt62hEL4-45">
          <mxGeometry y="52" width="290" height="26" as="geometry" />
        </mxCell>
        <mxCell id="8kHbCz_opkoACt62hEL4-50" value="- clicked: bool" style="text;strokeColor=none;fillColor=none;align=left;verticalAlign=top;spacingLeft=4;spacingRight=4;overflow=hidden;rotatable=0;points=[[0,0.5],[1,0.5]];portConstraint=eastwest;whiteSpace=wrap;html=1;" vertex="1" parent="8kHbCz_opkoACt62hEL4-45">
          <mxGeometry y="78" width="290" height="26" as="geometry" />
        </mxCell>
        <mxCell id="8kHbCz_opkoACt62hEL4-51" value="- flagged: bool" style="text;strokeColor=none;fillColor=none;align=left;verticalAlign=top;spacingLeft=4;spacingRight=4;overflow=hidden;rotatable=0;points=[[0,0.5],[1,0.5]];portConstraint=eastwest;whiteSpace=wrap;html=1;" vertex="1" parent="8kHbCz_opkoACt62hEL4-45">
          <mxGeometry y="104" width="290" height="26" as="geometry" />
        </mxCell>
        <mxCell id="8kHbCz_opkoACt62hEL4-52" value="- neighbors: List[Space]" style="text;strokeColor=none;fillColor=none;align=left;verticalAlign=top;spacingLeft=4;spacingRight=4;overflow=hidden;rotatable=0;points=[[0,0.5],[1,0.5]];portConstraint=eastwest;whiteSpace=wrap;html=1;" vertex="1" parent="8kHbCz_opkoACt62hEL4-45">
          <mxGeometry y="130" width="290" height="26" as="geometry" />
        </mxCell>
        <mxCell id="8kHbCz_opkoACt62hEL4-47" value="" style="line;strokeWidth=1;fillColor=none;align=left;verticalAlign=middle;spacingTop=-1;spacingLeft=3;spacingRight=3;rotatable=0;labelPosition=right;points=[];portConstraint=eastwest;strokeColor=inherit;" vertex="1" parent="8kHbCz_opkoACt62hEL4-45">
          <mxGeometry y="156" width="290" height="8" as="geometry" />
        </mxCell>
        <mxCell id="8kHbCz_opkoACt62hEL4-48" value="+ __init__ (has_bomb: bool): None" style="text;strokeColor=none;fillColor=none;align=left;verticalAlign=top;spacingLeft=4;spacingRight=4;overflow=hidden;rotatable=0;points=[[0,0.5],[1,0.5]];portConstraint=eastwest;whiteSpace=wrap;html=1;" vertex="1" parent="8kHbCz_opkoACt62hEL4-45">
          <mxGeometry y="164" width="290" height="26" as="geometry" />
        </mxCell>
        <mxCell id="8kHbCz_opkoACt62hEL4-53" value="+ __str__(): str" style="text;strokeColor=none;fillColor=none;align=left;verticalAlign=top;spacingLeft=4;spacingRight=4;overflow=hidden;rotatable=0;points=[[0,0.5],[1,0.5]];portConstraint=eastwest;whiteSpace=wrap;html=1;" vertex="1" parent="8kHbCz_opkoACt62hEL4-45">
          <mxGeometry y="190" width="290" height="26" as="geometry" />
        </mxCell>
        <mxCell id="8kHbCz_opkoACt62hEL4-54" value="+ get_num_around(): int" style="text;strokeColor=none;fillColor=none;align=left;verticalAlign=top;spacingLeft=4;spacingRight=4;overflow=hidden;rotatable=0;points=[[0,0.5],[1,0.5]];portConstraint=eastwest;whiteSpace=wrap;html=1;" vertex="1" parent="8kHbCz_opkoACt62hEL4-45">
          <mxGeometry y="216" width="290" height="26" as="geometry" />
        </mxCell>
        <mxCell id="8kHbCz_opkoACt62hEL4-55" value="+ get_has_bomb(): bool" style="text;strokeColor=none;fillColor=none;align=left;verticalAlign=top;spacingLeft=4;spacingRight=4;overflow=hidden;rotatable=0;points=[[0,0.5],[1,0.5]];portConstraint=eastwest;whiteSpace=wrap;html=1;" vertex="1" parent="8kHbCz_opkoACt62hEL4-45">
          <mxGeometry y="242" width="290" height="26" as="geometry" />
        </mxCell>
        <mxCell id="8kHbCz_opkoACt62hEL4-56" value="+ get_clicked(): bool" style="text;strokeColor=none;fillColor=none;align=left;verticalAlign=top;spacingLeft=4;spacingRight=4;overflow=hidden;rotatable=0;points=[[0,0.5],[1,0.5]];portConstraint=eastwest;whiteSpace=wrap;html=1;" vertex="1" parent="8kHbCz_opkoACt62hEL4-45">
          <mxGeometry y="268" width="290" height="26" as="geometry" />
        </mxCell>
        <mxCell id="8kHbCz_opkoACt62hEL4-57" value="+ get_flagged(): bool" style="text;strokeColor=none;fillColor=none;align=left;verticalAlign=top;spacingLeft=4;spacingRight=4;overflow=hidden;rotatable=0;points=[[0,0.5],[1,0.5]];portConstraint=eastwest;whiteSpace=wrap;html=1;" vertex="1" parent="8kHbCz_opkoACt62hEL4-45">
          <mxGeometry y="294" width="290" height="26" as="geometry" />
        </mxCell>
        <mxCell id="8kHbCz_opkoACt62hEL4-58" value="+ toggle_flag(): None" style="text;strokeColor=none;fillColor=none;align=left;verticalAlign=top;spacingLeft=4;spacingRight=4;overflow=hidden;rotatable=0;points=[[0,0.5],[1,0.5]];portConstraint=eastwest;whiteSpace=wrap;html=1;" vertex="1" parent="8kHbCz_opkoACt62hEL4-45">
          <mxGeometry y="320" width="290" height="26" as="geometry" />
        </mxCell>
        <mxCell id="8kHbCz_opkoACt62hEL4-59" value="+ handle_click(): None" style="text;strokeColor=none;fillColor=none;align=left;verticalAlign=top;spacingLeft=4;spacingRight=4;overflow=hidden;rotatable=0;points=[[0,0.5],[1,0.5]];portConstraint=eastwest;whiteSpace=wrap;html=1;" vertex="1" parent="8kHbCz_opkoACt62hEL4-45">
          <mxGeometry y="346" width="290" height="26" as="geometry" />
        </mxCell>
        <mxCell id="8kHbCz_opkoACt62hEL4-60" value="+ set_num_around(): None" style="text;strokeColor=none;fillColor=none;align=left;verticalAlign=top;spacingLeft=4;spacingRight=4;overflow=hidden;rotatable=0;points=[[0,0.5],[1,0.5]];portConstraint=eastwest;whiteSpace=wrap;html=1;" vertex="1" parent="8kHbCz_opkoACt62hEL4-45">
          <mxGeometry y="372" width="290" height="26" as="geometry" />
        </mxCell>
        <mxCell id="8kHbCz_opkoACt62hEL4-61" value="+ set_neighbors(neighbors: List[Space]): None" style="text;strokeColor=none;fillColor=none;align=left;verticalAlign=top;spacingLeft=4;spacingRight=4;overflow=hidden;rotatable=0;points=[[0,0.5],[1,0.5]];portConstraint=eastwest;whiteSpace=wrap;html=1;" vertex="1" parent="8kHbCz_opkoACt62hEL4-45">
          <mxGeometry y="398" width="290" height="26" as="geometry" />
        </mxCell>
        <mxCell id="8kHbCz_opkoACt62hEL4-62" value="+ get_neighbors(): List[Space]" style="text;strokeColor=none;fillColor=none;align=left;verticalAlign=top;spacingLeft=4;spacingRight=4;overflow=hidden;rotatable=0;points=[[0,0.5],[1,0.5]];portConstraint=eastwest;whiteSpace=wrap;html=1;" vertex="1" parent="8kHbCz_opkoACt62hEL4-45">
          <mxGeometry y="424" width="290" height="26" as="geometry" />
        </mxCell>
        <mxCell id="8kHbCz_opkoACt62hEL4-120" value="" style="endArrow=classic;html=1;rounded=0;entryX=0.5;entryY=0;entryDx=0;entryDy=0;exitX=0.5;exitY=0.982;exitDx=0;exitDy=0;exitPerimeter=0;strokeWidth=2;" edge="1" parent="8kHbCz_opkoACt62hEL4-121" source="8kHbCz_opkoACt62hEL4-10" target="8kHbCz_opkoACt62hEL4-45">
          <mxGeometry width="50" height="50" relative="1" as="geometry">
            <mxPoint x="130" y="710" as="sourcePoint" />
            <mxPoint x="180" y="660" as="targetPoint" />
          </mxGeometry>
        </mxCell>
        <mxCell id="GPG2XtoRdds_Y4jV5bU0-35" value="Game" style="swimlane;fontStyle=1;align=center;verticalAlign=top;childLayout=stackLayout;horizontal=1;startSize=26;horizontalStack=0;resizeParent=1;resizeParentMax=0;resizeLast=0;collapsible=1;marginBottom=0;whiteSpace=wrap;html=1;" parent="8kHbCz_opkoACt62hEL4-138" vertex="1">
          <mxGeometry x="540" width="290" height="474" as="geometry" />
        </mxCell>
        <mxCell id="GPG2XtoRdds_Y4jV5bU0-36" value="- board: Board" style="text;strokeColor=none;fillColor=none;align=left;verticalAlign=top;spacingLeft=4;spacingRight=4;overflow=hidden;rotatable=0;points=[[0,0.5],[1,0.5]];portConstraint=eastwest;whiteSpace=wrap;html=1;" parent="GPG2XtoRdds_Y4jV5bU0-35" vertex="1">
          <mxGeometry y="26" width="290" height="26" as="geometry" />
        </mxCell>
        <mxCell id="GPG2XtoRdds_Y4jV5bU0-37" value="- renderer: Renderer" style="text;strokeColor=none;fillColor=none;align=left;verticalAlign=top;spacingLeft=4;spacingRight=4;overflow=hidden;rotatable=0;points=[[0,0.5],[1,0.5]];portConstraint=eastwest;whiteSpace=wrap;html=1;" parent="GPG2XtoRdds_Y4jV5bU0-35" vertex="1">
          <mxGeometry y="52" width="290" height="26" as="geometry" />
        </mxCell>
        <mxCell id="GPG2XtoRdds_Y4jV5bU0-38" value="- state: State" style="text;strokeColor=none;fillColor=none;align=left;verticalAlign=top;spacingLeft=4;spacingRight=4;overflow=hidden;rotatable=0;points=[[0,0.5],[1,0.5]];portConstraint=eastwest;whiteSpace=wrap;html=1;" parent="GPG2XtoRdds_Y4jV5bU0-35" vertex="1">
          <mxGeometry y="78" width="290" height="26" as="geometry" />
        </mxCell>
        <mxCell id="GPG2XtoRdds_Y4jV5bU0-39" value="- solver_interface: SolverInterface" style="text;strokeColor=none;fillColor=none;align=left;verticalAlign=top;spacingLeft=4;spacingRight=4;overflow=hidden;rotatable=0;points=[[0,0.5],[1,0.5]];portConstraint=eastwest;whiteSpace=wrap;html=1;" parent="GPG2XtoRdds_Y4jV5bU0-35" vertex="1">
          <mxGeometry y="104" width="290" height="26" as="geometry" />
        </mxCell>
        <mxCell id="GPG2XtoRdds_Y4jV5bU0-40" value="- mine_positions: List[tuple]" style="text;strokeColor=none;fillColor=none;align=left;verticalAlign=top;spacingLeft=4;spacingRight=4;overflow=hidden;rotatable=0;points=[[0,0.5],[1,0.5]];portConstraint=eastwest;whiteSpace=wrap;html=1;" parent="GPG2XtoRdds_Y4jV5bU0-35" vertex="1">
          <mxGeometry y="130" width="290" height="26" as="geometry" />
        </mxCell>
        <mxCell id="GPG2XtoRdds_Y4jV5bU0-41" value="- expected_mine_count: int" style="text;strokeColor=none;fillColor=none;align=left;verticalAlign=top;spacingLeft=4;spacingRight=4;overflow=hidden;rotatable=0;points=[[0,0.5],[1,0.5]];portConstraint=eastwest;whiteSpace=wrap;html=1;" parent="GPG2XtoRdds_Y4jV5bU0-35" vertex="1">
          <mxGeometry y="156" width="290" height="26" as="geometry" />
        </mxCell>
        <mxCell id="8kHbCz_opkoACt62hEL4-11" value="- show_message: bool" style="text;strokeColor=none;fillColor=none;align=left;verticalAlign=top;spacingLeft=4;spacingRight=4;overflow=hidden;rotatable=0;points=[[0,0.5],[1,0.5]];portConstraint=eastwest;whiteSpace=wrap;html=1;" vertex="1" parent="GPG2XtoRdds_Y4jV5bU0-35">
          <mxGeometry y="182" width="290" height="26" as="geometry" />
        </mxCell>
        <mxCell id="GPG2XtoRdds_Y4jV5bU0-42" value="" style="line;strokeWidth=1;fillColor=none;align=left;verticalAlign=middle;spacingTop=-1;spacingLeft=3;spacingRight=3;rotatable=0;labelPosition=right;points=[];portConstraint=eastwest;strokeColor=inherit;" parent="GPG2XtoRdds_Y4jV5bU0-35" vertex="1">
          <mxGeometry y="208" width="290" height="8" as="geometry" />
        </mxCell>
        <mxCell id="GPG2XtoRdds_Y4jV5bU0-43" value="+ __init__(grid_size: tuple, mine_count: int): None" style="text;strokeColor=none;fillColor=none;align=left;verticalAlign=top;spacingLeft=4;spacingRight=4;overflow=hidden;rotatable=0;points=[[0,0.5],[1,0.5]];portConstraint=eastwest;whiteSpace=wrap;html=1;" parent="GPG2XtoRdds_Y4jV5bU0-35" vertex="1">
          <mxGeometry y="216" width="290" height="26" as="geometry" />
        </mxCell>
        <mxCell id="GPG2XtoRdds_Y4jV5bU0-44" value="+ run_solver(): None" style="text;strokeColor=none;fillColor=none;align=left;verticalAlign=top;spacingLeft=4;spacingRight=4;overflow=hidden;rotatable=0;points=[[0,0.5],[1,0.5]];portConstraint=eastwest;whiteSpace=wrap;html=1;" parent="GPG2XtoRdds_Y4jV5bU0-35" vertex="1">
          <mxGeometry y="242" width="290" height="24" as="geometry" />
        </mxCell>
        <mxCell id="GPG2XtoRdds_Y4jV5bU0-45" value="+ should_switch_solver(): bool" style="text;strokeColor=none;fillColor=none;align=left;verticalAlign=top;spacingLeft=4;spacingRight=4;overflow=hidden;rotatable=0;points=[[0,0.5],[1,0.5]];portConstraint=eastwest;whiteSpace=wrap;html=1;" parent="GPG2XtoRdds_Y4jV5bU0-35" vertex="1">
          <mxGeometry y="266" width="290" height="26" as="geometry" />
        </mxCell>
        <mxCell id="GPG2XtoRdds_Y4jV5bU0-46" value="+ initial_draw(): None" style="text;strokeColor=none;fillColor=none;align=left;verticalAlign=top;spacingLeft=4;spacingRight=4;overflow=hidden;rotatable=0;points=[[0,0.5],[1,0.5]];portConstraint=eastwest;whiteSpace=wrap;html=1;" parent="GPG2XtoRdds_Y4jV5bU0-35" vertex="1">
          <mxGeometry y="292" width="290" height="26" as="geometry" />
        </mxCell>
        <mxCell id="GPG2XtoRdds_Y4jV5bU0-47" value="+ change_state(new_state: State): None" style="text;strokeColor=none;fillColor=none;align=left;verticalAlign=top;spacingLeft=4;spacingRight=4;overflow=hidden;rotatable=0;points=[[0,0.5],[1,0.5]];portConstraint=eastwest;whiteSpace=wrap;html=1;" parent="GPG2XtoRdds_Y4jV5bU0-35" vertex="1">
          <mxGeometry y="318" width="290" height="26" as="geometry" />
        </mxCell>
        <mxCell id="8kHbCz_opkoACt62hEL4-12" value="+ run(): None" style="text;strokeColor=none;fillColor=none;align=left;verticalAlign=top;spacingLeft=4;spacingRight=4;overflow=hidden;rotatable=0;points=[[0,0.5],[1,0.5]];portConstraint=eastwest;whiteSpace=wrap;html=1;" vertex="1" parent="GPG2XtoRdds_Y4jV5bU0-35">
          <mxGeometry y="344" width="290" height="26" as="geometry" />
        </mxCell>
        <mxCell id="8kHbCz_opkoACt62hEL4-13" value="+ convert_pixel_to_grid(pixel_position: tuple): tuple" style="text;strokeColor=none;fillColor=none;align=left;verticalAlign=top;spacingLeft=4;spacingRight=4;overflow=hidden;rotatable=0;points=[[0,0.5],[1,0.5]];portConstraint=eastwest;whiteSpace=wrap;html=1;" vertex="1" parent="GPG2XtoRdds_Y4jV5bU0-35">
          <mxGeometry y="370" width="290" height="26" as="geometry" />
        </mxCell>
        <mxCell id="8kHbCz_opkoACt62hEL4-14" value="+ handle_click(position: tuple, flag: bool): None" style="text;strokeColor=none;fillColor=none;align=left;verticalAlign=top;spacingLeft=4;spacingRight=4;overflow=hidden;rotatable=0;points=[[0,0.5],[1,0.5]];portConstraint=eastwest;whiteSpace=wrap;html=1;" vertex="1" parent="GPG2XtoRdds_Y4jV5bU0-35">
          <mxGeometry y="396" width="290" height="26" as="geometry" />
        </mxCell>
        <mxCell id="8kHbCz_opkoACt62hEL4-15" value="+ initialize_board(): None" style="text;strokeColor=none;fillColor=none;align=left;verticalAlign=top;spacingLeft=4;spacingRight=4;overflow=hidden;rotatable=0;points=[[0,0.5],[1,0.5]];portConstraint=eastwest;whiteSpace=wrap;html=1;" vertex="1" parent="GPG2XtoRdds_Y4jV5bU0-35">
          <mxGeometry y="422" width="290" height="26" as="geometry" />
        </mxCell>
        <mxCell id="8kHbCz_opkoACt62hEL4-16" value="+ win(): None" style="text;strokeColor=none;fillColor=none;align=left;verticalAlign=top;spacingLeft=4;spacingRight=4;overflow=hidden;rotatable=0;points=[[0,0.5],[1,0.5]];portConstraint=eastwest;whiteSpace=wrap;html=1;" vertex="1" parent="GPG2XtoRdds_Y4jV5bU0-35">
          <mxGeometry y="448" width="290" height="26" as="geometry" />
        </mxCell>
        <mxCell id="GPG2XtoRdds_Y4jV5bU0-48" value="Renderer" style="swimlane;fontStyle=1;align=center;verticalAlign=top;childLayout=stackLayout;horizontal=1;startSize=26;horizontalStack=0;resizeParent=1;resizeParentMax=0;resizeLast=0;collapsible=1;marginBottom=0;whiteSpace=wrap;html=1;" parent="8kHbCz_opkoACt62hEL4-138" vertex="1">
          <mxGeometry x="1000" width="470" height="398" as="geometry" />
        </mxCell>
        <mxCell id="8kHbCz_opkoACt62hEL4-17" value="- piece_size: tuple" style="text;strokeColor=none;fillColor=none;align=left;verticalAlign=top;spacingLeft=4;spacingRight=4;overflow=hidden;rotatable=0;points=[[0,0.5],[1,0.5]];portConstraint=eastwest;whiteSpace=wrap;html=1;" vertex="1" parent="GPG2XtoRdds_Y4jV5bU0-48">
          <mxGeometry y="26" width="470" height="26" as="geometry" />
        </mxCell>
        <mxCell id="8kHbCz_opkoACt62hEL4-18" value="- screen_size: tuple" style="text;strokeColor=none;fillColor=none;align=left;verticalAlign=top;spacingLeft=4;spacingRight=4;overflow=hidden;rotatable=0;points=[[0,0.5],[1,0.5]];portConstraint=eastwest;whiteSpace=wrap;html=1;" vertex="1" parent="GPG2XtoRdds_Y4jV5bU0-48">
          <mxGeometry y="52" width="470" height="26" as="geometry" />
        </mxCell>
        <mxCell id="8kHbCz_opkoACt62hEL4-19" value="- extra_height: int" style="text;strokeColor=none;fillColor=none;align=left;verticalAlign=top;spacingLeft=4;spacingRight=4;overflow=hidden;rotatable=0;points=[[0,0.5],[1,0.5]];portConstraint=eastwest;whiteSpace=wrap;html=1;" vertex="1" parent="GPG2XtoRdds_Y4jV5bU0-48">
          <mxGeometry y="78" width="470" height="26" as="geometry" />
        </mxCell>
        <mxCell id="8kHbCz_opkoACt62hEL4-20" value="- screen: pygame.Surface" style="text;strokeColor=none;fillColor=none;align=left;verticalAlign=top;spacingLeft=4;spacingRight=4;overflow=hidden;rotatable=0;points=[[0,0.5],[1,0.5]];portConstraint=eastwest;whiteSpace=wrap;html=1;" vertex="1" parent="GPG2XtoRdds_Y4jV5bU0-48">
          <mxGeometry y="104" width="470" height="26" as="geometry" />
        </mxCell>
        <mxCell id="8kHbCz_opkoACt62hEL4-21" value="- assets: Dict[str, pygame.Surface]" style="text;strokeColor=none;fillColor=none;align=left;verticalAlign=top;spacingLeft=4;spacingRight=4;overflow=hidden;rotatable=0;points=[[0,0.5],[1,0.5]];portConstraint=eastwest;whiteSpace=wrap;html=1;" vertex="1" parent="GPG2XtoRdds_Y4jV5bU0-48">
          <mxGeometry y="130" width="470" height="26" as="geometry" />
        </mxCell>
        <mxCell id="8kHbCz_opkoACt62hEL4-22" value="- font: pygame.Font" style="text;strokeColor=none;fillColor=none;align=left;verticalAlign=top;spacingLeft=4;spacingRight=4;overflow=hidden;rotatable=0;points=[[0,0.5],[1,0.5]];portConstraint=eastwest;whiteSpace=wrap;html=1;" vertex="1" parent="GPG2XtoRdds_Y4jV5bU0-48">
          <mxGeometry y="156" width="470" height="26" as="geometry" />
        </mxCell>
        <mxCell id="GPG2XtoRdds_Y4jV5bU0-49" value="" style="line;strokeWidth=1;fillColor=none;align=left;verticalAlign=middle;spacingTop=-1;spacingLeft=3;spacingRight=3;rotatable=0;labelPosition=right;points=[];portConstraint=eastwest;strokeColor=inherit;" parent="GPG2XtoRdds_Y4jV5bU0-48" vertex="1">
          <mxGeometry y="182" width="470" height="8" as="geometry" />
        </mxCell>
        <mxCell id="GPG2XtoRdds_Y4jV5bU0-50" value="+ __init__(grid_size: tuple, piece_size: tuple, extra_height: int = 100): None" style="text;strokeColor=none;fillColor=none;align=left;verticalAlign=top;spacingLeft=4;spacingRight=4;overflow=hidden;rotatable=0;points=[[0,0.5],[1,0.5]];portConstraint=eastwest;whiteSpace=wrap;html=1;" parent="GPG2XtoRdds_Y4jV5bU0-48" vertex="1">
          <mxGeometry y="190" width="470" height="26" as="geometry" />
        </mxCell>
        <mxCell id="GPG2XtoRdds_Y4jV5bU0-51" value="+ load_assets(): Dict[str, pygame.Surface]" style="text;strokeColor=none;fillColor=none;align=left;verticalAlign=top;spacingLeft=4;spacingRight=4;overflow=hidden;rotatable=0;points=[[0,0.5],[1,0.5]];portConstraint=eastwest;whiteSpace=wrap;html=1;" parent="GPG2XtoRdds_Y4jV5bU0-48" vertex="1">
          <mxGeometry y="216" width="470" height="26" as="geometry" />
        </mxCell>
        <mxCell id="GPG2XtoRdds_Y4jV5bU0-52" value="+ draw_header(mine_count: int, flags_placed: int): None" style="text;strokeColor=none;fillColor=none;align=left;verticalAlign=top;spacingLeft=4;spacingRight=4;overflow=hidden;rotatable=0;points=[[0,0.5],[1,0.5]];portConstraint=eastwest;whiteSpace=wrap;html=1;" parent="GPG2XtoRdds_Y4jV5bU0-48" vertex="1">
          <mxGeometry y="242" width="470" height="26" as="geometry" />
        </mxCell>
        <mxCell id="GPG2XtoRdds_Y4jV5bU0-53" value="+ draw_board(board: Board, mine_positions: list = [], flags_placed: int = 0): None" style="text;strokeColor=none;fillColor=none;align=left;verticalAlign=top;spacingLeft=4;spacingRight=4;overflow=hidden;rotatable=0;points=[[0,0.5],[1,0.5]];portConstraint=eastwest;whiteSpace=wrap;html=1;" parent="GPG2XtoRdds_Y4jV5bU0-48" vertex="1">
          <mxGeometry y="268" width="470" height="26" as="geometry" />
        </mxCell>
        <mxCell id="GPG2XtoRdds_Y4jV5bU0-54" value="+ draw_piece(piece: space, position: tuple): None" style="text;strokeColor=none;fillColor=none;align=left;verticalAlign=top;spacingLeft=4;spacingRight=4;overflow=hidden;rotatable=0;points=[[0,0.5],[1,0.5]];portConstraint=eastwest;whiteSpace=wrap;html=1;" parent="GPG2XtoRdds_Y4jV5bU0-48" vertex="1">
          <mxGeometry y="294" width="470" height="26" as="geometry" />
        </mxCell>
        <mxCell id="GPG2XtoRdds_Y4jV5bU0-55" value="+ get_image_key(piece: Space): str" style="text;strokeColor=none;fillColor=none;align=left;verticalAlign=top;spacingLeft=4;spacingRight=4;overflow=hidden;rotatable=0;points=[[0,0.5],[1,0.5]];portConstraint=eastwest;whiteSpace=wrap;html=1;" parent="GPG2XtoRdds_Y4jV5bU0-48" vertex="1">
          <mxGeometry y="320" width="470" height="26" as="geometry" />
        </mxCell>
        <mxCell id="8kHbCz_opkoACt62hEL4-23" value="+ update_display(): None" style="text;strokeColor=none;fillColor=none;align=left;verticalAlign=top;spacingLeft=4;spacingRight=4;overflow=hidden;rotatable=0;points=[[0,0.5],[1,0.5]];portConstraint=eastwest;whiteSpace=wrap;html=1;" vertex="1" parent="GPG2XtoRdds_Y4jV5bU0-48">
          <mxGeometry y="346" width="470" height="26" as="geometry" />
        </mxCell>
        <mxCell id="GPG2XtoRdds_Y4jV5bU0-56" value="+ clear_screen(): None" style="text;strokeColor=none;fillColor=none;align=left;verticalAlign=top;spacingLeft=4;spacingRight=4;overflow=hidden;rotatable=0;points=[[0,0.5],[1,0.5]];portConstraint=eastwest;whiteSpace=wrap;html=1;" parent="GPG2XtoRdds_Y4jV5bU0-48" vertex="1">
          <mxGeometry y="372" width="470" height="26" as="geometry" />
        </mxCell>
        <mxCell id="8kHbCz_opkoACt62hEL4-38" value="&amp;lt;&amp;lt;Abstract&amp;gt;&amp;gt;&lt;br&gt;State" style="swimlane;fontStyle=1;align=center;verticalAlign=top;childLayout=stackLayout;horizontal=1;startSize=44;horizontalStack=0;resizeParent=1;resizeParentMax=0;resizeLast=0;collapsible=1;marginBottom=0;whiteSpace=wrap;html=1;" vertex="1" parent="8kHbCz_opkoACt62hEL4-138">
          <mxGeometry x="1130" y="470" width="210" height="182" as="geometry" />
        </mxCell>
        <mxCell id="8kHbCz_opkoACt62hEL4-39" value="- board: Game" style="text;strokeColor=none;fillColor=none;align=left;verticalAlign=top;spacingLeft=4;spacingRight=4;overflow=hidden;rotatable=0;points=[[0,0.5],[1,0.5]];portConstraint=eastwest;whiteSpace=wrap;html=1;" vertex="1" parent="8kHbCz_opkoACt62hEL4-38">
          <mxGeometry y="44" width="210" height="26" as="geometry" />
        </mxCell>
        <mxCell id="8kHbCz_opkoACt62hEL4-40" value="" style="line;strokeWidth=1;fillColor=none;align=left;verticalAlign=middle;spacingTop=-1;spacingLeft=3;spacingRight=3;rotatable=0;labelPosition=right;points=[];portConstraint=eastwest;strokeColor=inherit;" vertex="1" parent="8kHbCz_opkoACt62hEL4-38">
          <mxGeometry y="70" width="210" height="8" as="geometry" />
        </mxCell>
        <mxCell id="8kHbCz_opkoACt62hEL4-41" value="+ __init__(game: Game): None" style="text;strokeColor=none;fillColor=none;align=left;verticalAlign=top;spacingLeft=4;spacingRight=4;overflow=hidden;rotatable=0;points=[[0,0.5],[1,0.5]];portConstraint=eastwest;whiteSpace=wrap;html=1;" vertex="1" parent="8kHbCz_opkoACt62hEL4-38">
          <mxGeometry y="78" width="210" height="26" as="geometry" />
        </mxCell>
        <mxCell id="8kHbCz_opkoACt62hEL4-42" value="+ handle_click(position: tuple): None" style="text;strokeColor=none;fillColor=none;align=left;verticalAlign=top;spacingLeft=4;spacingRight=4;overflow=hidden;rotatable=0;points=[[0,0.5],[1,0.5]];portConstraint=eastwest;whiteSpace=wrap;html=1;" vertex="1" parent="8kHbCz_opkoACt62hEL4-38">
          <mxGeometry y="104" width="210" height="26" as="geometry" />
        </mxCell>
        <mxCell id="8kHbCz_opkoACt62hEL4-43" value="+ enter(): None" style="text;strokeColor=none;fillColor=none;align=left;verticalAlign=top;spacingLeft=4;spacingRight=4;overflow=hidden;rotatable=0;points=[[0,0.5],[1,0.5]];portConstraint=eastwest;whiteSpace=wrap;html=1;" vertex="1" parent="8kHbCz_opkoACt62hEL4-38">
          <mxGeometry y="130" width="210" height="26" as="geometry" />
        </mxCell>
        <mxCell id="8kHbCz_opkoACt62hEL4-44" value="+ exit(): None" style="text;strokeColor=none;fillColor=none;align=left;verticalAlign=top;spacingLeft=4;spacingRight=4;overflow=hidden;rotatable=0;points=[[0,0.5],[1,0.5]];portConstraint=eastwest;whiteSpace=wrap;html=1;" vertex="1" parent="8kHbCz_opkoACt62hEL4-38">
          <mxGeometry y="156" width="210" height="26" as="geometry" />
        </mxCell>
        <mxCell id="8kHbCz_opkoACt62hEL4-75" value="PlayingState" style="swimlane;fontStyle=1;align=center;verticalAlign=top;childLayout=stackLayout;horizontal=1;startSize=26;horizontalStack=0;resizeParent=1;resizeParentMax=0;resizeLast=0;collapsible=1;marginBottom=0;whiteSpace=wrap;html=1;" vertex="1" parent="8kHbCz_opkoACt62hEL4-138">
          <mxGeometry x="880" y="703" width="210" height="164" as="geometry" />
        </mxCell>
        <mxCell id="8kHbCz_opkoACt62hEL4-76" value="- solver_interface: SolverInterface" style="text;strokeColor=none;fillColor=none;align=left;verticalAlign=top;spacingLeft=4;spacingRight=4;overflow=hidden;rotatable=0;points=[[0,0.5],[1,0.5]];portConstraint=eastwest;whiteSpace=wrap;html=1;" vertex="1" parent="8kHbCz_opkoACt62hEL4-75">
          <mxGeometry y="26" width="210" height="26" as="geometry" />
        </mxCell>
        <mxCell id="8kHbCz_opkoACt62hEL4-77" value="" style="line;strokeWidth=1;fillColor=none;align=left;verticalAlign=middle;spacingTop=-1;spacingLeft=3;spacingRight=3;rotatable=0;labelPosition=right;points=[];portConstraint=eastwest;strokeColor=inherit;" vertex="1" parent="8kHbCz_opkoACt62hEL4-75">
          <mxGeometry y="52" width="210" height="8" as="geometry" />
        </mxCell>
        <mxCell id="8kHbCz_opkoACt62hEL4-78" value="+ handle_click(position: tuple): None" style="text;strokeColor=none;fillColor=none;align=left;verticalAlign=top;spacingLeft=4;spacingRight=4;overflow=hidden;rotatable=0;points=[[0,0.5],[1,0.5]];portConstraint=eastwest;whiteSpace=wrap;html=1;" vertex="1" parent="8kHbCz_opkoACt62hEL4-75">
          <mxGeometry y="60" width="210" height="26" as="geometry" />
        </mxCell>
        <mxCell id="8kHbCz_opkoACt62hEL4-79" value="+ update(): None" style="text;strokeColor=none;fillColor=none;align=left;verticalAlign=top;spacingLeft=4;spacingRight=4;overflow=hidden;rotatable=0;points=[[0,0.5],[1,0.5]];portConstraint=eastwest;whiteSpace=wrap;html=1;" vertex="1" parent="8kHbCz_opkoACt62hEL4-75">
          <mxGeometry y="86" width="210" height="26" as="geometry" />
        </mxCell>
        <mxCell id="8kHbCz_opkoACt62hEL4-80" value="+ enter(): None" style="text;strokeColor=none;fillColor=none;align=left;verticalAlign=top;spacingLeft=4;spacingRight=4;overflow=hidden;rotatable=0;points=[[0,0.5],[1,0.5]];portConstraint=eastwest;whiteSpace=wrap;html=1;" vertex="1" parent="8kHbCz_opkoACt62hEL4-75">
          <mxGeometry y="112" width="210" height="26" as="geometry" />
        </mxCell>
        <mxCell id="8kHbCz_opkoACt62hEL4-81" value="+ exit(): None" style="text;strokeColor=none;fillColor=none;align=left;verticalAlign=top;spacingLeft=4;spacingRight=4;overflow=hidden;rotatable=0;points=[[0,0.5],[1,0.5]];portConstraint=eastwest;whiteSpace=wrap;html=1;" vertex="1" parent="8kHbCz_opkoACt62hEL4-75">
          <mxGeometry y="138" width="210" height="26" as="geometry" />
        </mxCell>
        <mxCell id="8kHbCz_opkoACt62hEL4-82" value="InitializingState" style="swimlane;fontStyle=1;align=center;verticalAlign=top;childLayout=stackLayout;horizontal=1;startSize=26;horizontalStack=0;resizeParent=1;resizeParentMax=0;resizeLast=0;collapsible=1;marginBottom=0;whiteSpace=wrap;html=1;" vertex="1" parent="8kHbCz_opkoACt62hEL4-138">
          <mxGeometry x="1125" y="703" width="220" height="138" as="geometry" />
        </mxCell>
        <mxCell id="8kHbCz_opkoACt62hEL4-84" value="" style="line;strokeWidth=1;fillColor=none;align=left;verticalAlign=middle;spacingTop=-1;spacingLeft=3;spacingRight=3;rotatable=0;labelPosition=right;points=[];portConstraint=eastwest;strokeColor=inherit;" vertex="1" parent="8kHbCz_opkoACt62hEL4-82">
          <mxGeometry y="26" width="220" height="8" as="geometry" />
        </mxCell>
        <mxCell id="8kHbCz_opkoACt62hEL4-85" value="+ handle_click(position: tuple): None" style="text;strokeColor=none;fillColor=none;align=left;verticalAlign=top;spacingLeft=4;spacingRight=4;overflow=hidden;rotatable=0;points=[[0,0.5],[1,0.5]];portConstraint=eastwest;whiteSpace=wrap;html=1;" vertex="1" parent="8kHbCz_opkoACt62hEL4-82">
          <mxGeometry y="34" width="220" height="26" as="geometry" />
        </mxCell>
        <mxCell id="8kHbCz_opkoACt62hEL4-86" value="+ update(): None" style="text;strokeColor=none;fillColor=none;align=left;verticalAlign=top;spacingLeft=4;spacingRight=4;overflow=hidden;rotatable=0;points=[[0,0.5],[1,0.5]];portConstraint=eastwest;whiteSpace=wrap;html=1;" vertex="1" parent="8kHbCz_opkoACt62hEL4-82">
          <mxGeometry y="60" width="220" height="26" as="geometry" />
        </mxCell>
        <mxCell id="8kHbCz_opkoACt62hEL4-87" value="+ enter(): None" style="text;strokeColor=none;fillColor=none;align=left;verticalAlign=top;spacingLeft=4;spacingRight=4;overflow=hidden;rotatable=0;points=[[0,0.5],[1,0.5]];portConstraint=eastwest;whiteSpace=wrap;html=1;" vertex="1" parent="8kHbCz_opkoACt62hEL4-82">
          <mxGeometry y="86" width="220" height="26" as="geometry" />
        </mxCell>
        <mxCell id="8kHbCz_opkoACt62hEL4-88" value="+ exit(): None" style="text;strokeColor=none;fillColor=none;align=left;verticalAlign=top;spacingLeft=4;spacingRight=4;overflow=hidden;rotatable=0;points=[[0,0.5],[1,0.5]];portConstraint=eastwest;whiteSpace=wrap;html=1;" vertex="1" parent="8kHbCz_opkoACt62hEL4-82">
          <mxGeometry y="112" width="220" height="26" as="geometry" />
        </mxCell>
        <mxCell id="8kHbCz_opkoACt62hEL4-89" value="GameOverState" style="swimlane;fontStyle=1;align=center;verticalAlign=top;childLayout=stackLayout;horizontal=1;startSize=26;horizontalStack=0;resizeParent=1;resizeParentMax=0;resizeLast=0;collapsible=1;marginBottom=0;whiteSpace=wrap;html=1;" vertex="1" parent="8kHbCz_opkoACt62hEL4-138">
          <mxGeometry x="1375" y="703" width="230" height="164" as="geometry" />
        </mxCell>
        <mxCell id="8kHbCz_opkoACt62hEL4-90" value="- win: bool" style="text;strokeColor=none;fillColor=none;align=left;verticalAlign=top;spacingLeft=4;spacingRight=4;overflow=hidden;rotatable=0;points=[[0,0.5],[1,0.5]];portConstraint=eastwest;whiteSpace=wrap;html=1;" vertex="1" parent="8kHbCz_opkoACt62hEL4-89">
          <mxGeometry y="26" width="230" height="26" as="geometry" />
        </mxCell>
        <mxCell id="8kHbCz_opkoACt62hEL4-91" value="" style="line;strokeWidth=1;fillColor=none;align=left;verticalAlign=middle;spacingTop=-1;spacingLeft=3;spacingRight=3;rotatable=0;labelPosition=right;points=[];portConstraint=eastwest;strokeColor=inherit;" vertex="1" parent="8kHbCz_opkoACt62hEL4-89">
          <mxGeometry y="52" width="230" height="8" as="geometry" />
        </mxCell>
        <mxCell id="8kHbCz_opkoACt62hEL4-92" value="+ handle_click(position: tuple): None" style="text;strokeColor=none;fillColor=none;align=left;verticalAlign=top;spacingLeft=4;spacingRight=4;overflow=hidden;rotatable=0;points=[[0,0.5],[1,0.5]];portConstraint=eastwest;whiteSpace=wrap;html=1;" vertex="1" parent="8kHbCz_opkoACt62hEL4-89">
          <mxGeometry y="60" width="230" height="26" as="geometry" />
        </mxCell>
        <mxCell id="8kHbCz_opkoACt62hEL4-93" value="+ update(): None" style="text;strokeColor=none;fillColor=none;align=left;verticalAlign=top;spacingLeft=4;spacingRight=4;overflow=hidden;rotatable=0;points=[[0,0.5],[1,0.5]];portConstraint=eastwest;whiteSpace=wrap;html=1;" vertex="1" parent="8kHbCz_opkoACt62hEL4-89">
          <mxGeometry y="86" width="230" height="26" as="geometry" />
        </mxCell>
        <mxCell id="8kHbCz_opkoACt62hEL4-94" value="+ enter(): None" style="text;strokeColor=none;fillColor=none;align=left;verticalAlign=top;spacingLeft=4;spacingRight=4;overflow=hidden;rotatable=0;points=[[0,0.5],[1,0.5]];portConstraint=eastwest;whiteSpace=wrap;html=1;" vertex="1" parent="8kHbCz_opkoACt62hEL4-89">
          <mxGeometry y="112" width="230" height="26" as="geometry" />
        </mxCell>
        <mxCell id="8kHbCz_opkoACt62hEL4-95" value="+ exit(): None" style="text;strokeColor=none;fillColor=none;align=left;verticalAlign=top;spacingLeft=4;spacingRight=4;overflow=hidden;rotatable=0;points=[[0,0.5],[1,0.5]];portConstraint=eastwest;whiteSpace=wrap;html=1;" vertex="1" parent="8kHbCz_opkoACt62hEL4-89">
          <mxGeometry y="138" width="230" height="26" as="geometry" />
        </mxCell>
        <mxCell id="8kHbCz_opkoACt62hEL4-115" value="" style="endArrow=classic;html=1;rounded=0;exitX=0.5;exitY=0;exitDx=0;exitDy=0;strokeWidth=2;" edge="1" parent="8kHbCz_opkoACt62hEL4-138" source="8kHbCz_opkoACt62hEL4-38" target="GPG2XtoRdds_Y4jV5bU0-56">
          <mxGeometry width="50" height="50" relative="1" as="geometry">
            <mxPoint x="1510" y="480" as="sourcePoint" />
            <mxPoint x="1560" y="430" as="targetPoint" />
          </mxGeometry>
        </mxCell>
        <mxCell id="8kHbCz_opkoACt62hEL4-116" value="" style="endArrow=block;endSize=16;endFill=0;html=1;rounded=0;entryX=-0.002;entryY=0.125;entryDx=0;entryDy=0;entryPerimeter=0;strokeWidth=2;exitX=0.473;exitY=-0.001;exitDx=0;exitDy=0;exitPerimeter=0;" edge="1" parent="8kHbCz_opkoACt62hEL4-138" source="8kHbCz_opkoACt62hEL4-75" target="8kHbCz_opkoACt62hEL4-38">
          <mxGeometry width="160" relative="1" as="geometry">
            <mxPoint x="1010" y="700" as="sourcePoint" />
            <mxPoint x="930.0000000000002" y="681.672" as="targetPoint" />
            <Array as="points">
              <mxPoint x="979" y="493" />
            </Array>
          </mxGeometry>
        </mxCell>
        <mxCell id="8kHbCz_opkoACt62hEL4-118" value="" style="endArrow=block;endSize=16;endFill=0;html=1;rounded=0;exitX=0.856;exitY=0.953;exitDx=0;exitDy=0;exitPerimeter=0;strokeWidth=2;" edge="1" parent="8kHbCz_opkoACt62hEL4-138">
          <mxGeometry width="160" relative="1" as="geometry">
            <mxPoint x="1234.58" y="704.22" as="sourcePoint" />
            <mxPoint x="1234.74" y="651.998" as="targetPoint" />
          </mxGeometry>
        </mxCell>
        <mxCell id="8kHbCz_opkoACt62hEL4-119" value="" style="endArrow=block;endSize=16;endFill=0;html=1;rounded=0;entryX=0.995;entryY=0.135;entryDx=0;entryDy=0;entryPerimeter=0;strokeWidth=2;" edge="1" parent="8kHbCz_opkoACt62hEL4-138" target="8kHbCz_opkoACt62hEL4-38">
          <mxGeometry width="160" relative="1" as="geometry">
            <mxPoint x="1500" y="700" as="sourcePoint" />
            <mxPoint x="1589" y="495" as="targetPoint" />
            <Array as="points">
              <mxPoint x="1500" y="495" />
            </Array>
          </mxGeometry>
        </mxCell>
        <mxCell id="8kHbCz_opkoACt62hEL4-123" value="1" style="endArrow=open;html=1;endSize=12;startArrow=diamondThin;startSize=14;startFill=1;edgeStyle=orthogonalEdgeStyle;align=left;verticalAlign=bottom;rounded=0;exitX=1.001;exitY=0.019;exitDx=0;exitDy=0;exitPerimeter=0;entryX=0.005;entryY=0.026;entryDx=0;entryDy=0;entryPerimeter=0;strokeWidth=2;" edge="1" parent="8kHbCz_opkoACt62hEL4-138" source="GPG2XtoRdds_Y4jV5bU0-3" target="GPG2XtoRdds_Y4jV5bU0-35">
          <mxGeometry x="-0.6484" y="-18" relative="1" as="geometry">
            <mxPoint x="430" y="10" as="sourcePoint" />
            <mxPoint x="520" y="40" as="targetPoint" />
            <mxPoint as="offset" />
          </mxGeometry>
        </mxCell>
        <mxCell id="8kHbCz_opkoACt62hEL4-129" value="" style="endArrow=classic;html=1;rounded=0;entryX=-0.001;entryY=0.037;entryDx=0;entryDy=0;entryPerimeter=0;strokeWidth=2;exitX=1;exitY=0.03;exitDx=0;exitDy=0;exitPerimeter=0;" edge="1" parent="8kHbCz_opkoACt62hEL4-138" source="GPG2XtoRdds_Y4jV5bU0-35" target="GPG2XtoRdds_Y4jV5bU0-48">
          <mxGeometry width="50" height="50" relative="1" as="geometry">
            <mxPoint x="830" y="10" as="sourcePoint" />
            <mxPoint x="950" y="-40" as="targetPoint" />
          </mxGeometry>
        </mxCell>
        <mxCell id="8kHbCz_opkoACt62hEL4-131" value="1" style="endArrow=open;html=1;endSize=12;startArrow=diamondThin;startSize=14;startFill=0;edgeStyle=orthogonalEdgeStyle;align=left;verticalAlign=bottom;rounded=0;entryX=0.5;entryY=0;entryDx=0;entryDy=0;exitX=0.484;exitY=1.012;exitDx=0;exitDy=0;exitPerimeter=0;strokeWidth=2;" edge="1" parent="8kHbCz_opkoACt62hEL4-138" source="8kHbCz_opkoACt62hEL4-16" target="8kHbCz_opkoACt62hEL4-67">
          <mxGeometry x="-0.5873" y="10" relative="1" as="geometry">
            <mxPoint x="670" y="510" as="sourcePoint" />
            <mxPoint x="820" y="500" as="targetPoint" />
            <Array as="points">
              <mxPoint x="680" y="510" />
              <mxPoint x="680" y="510" />
            </Array>
            <mxPoint as="offset" />
          </mxGeometry>
        </mxCell>
        <mxCell id="8kHbCz_opkoACt62hEL4-139" value="" style="group" vertex="1" connectable="0" parent="1">
          <mxGeometry x="-653.5" y="1200" width="1095" height="528" as="geometry" />
        </mxCell>
        <mxCell id="GPG2XtoRdds_Y4jV5bU0-30" value="Solver" style="swimlane;fontStyle=1;align=center;verticalAlign=top;childLayout=stackLayout;horizontal=1;startSize=26;horizontalStack=0;resizeParent=1;resizeParentMax=0;resizeLast=0;collapsible=1;marginBottom=0;whiteSpace=wrap;html=1;" parent="8kHbCz_opkoACt62hEL4-139" vertex="1">
          <mxGeometry width="245" height="242" as="geometry" />
        </mxCell>
        <mxCell id="GPG2XtoRdds_Y4jV5bU0-31" value="- board: Board" style="text;strokeColor=none;fillColor=none;align=left;verticalAlign=top;spacingLeft=4;spacingRight=4;overflow=hidden;rotatable=0;points=[[0,0.5],[1,0.5]];portConstraint=eastwest;whiteSpace=wrap;html=1;" parent="GPG2XtoRdds_Y4jV5bU0-30" vertex="1">
          <mxGeometry y="26" width="245" height="26" as="geometry" />
        </mxCell>
        <mxCell id="8kHbCz_opkoACt62hEL4-24" value="- strategy: Strategy" style="text;strokeColor=none;fillColor=none;align=left;verticalAlign=top;spacingLeft=4;spacingRight=4;overflow=hidden;rotatable=0;points=[[0,0.5],[1,0.5]];portConstraint=eastwest;whiteSpace=wrap;html=1;" vertex="1" parent="GPG2XtoRdds_Y4jV5bU0-30">
          <mxGeometry y="52" width="245" height="26" as="geometry" />
        </mxCell>
        <mxCell id="GPG2XtoRdds_Y4jV5bU0-32" value="" style="line;strokeWidth=1;fillColor=none;align=left;verticalAlign=middle;spacingTop=-1;spacingLeft=3;spacingRight=3;rotatable=0;labelPosition=right;points=[];portConstraint=eastwest;strokeColor=inherit;" parent="GPG2XtoRdds_Y4jV5bU0-30" vertex="1">
          <mxGeometry y="78" width="245" height="8" as="geometry" />
        </mxCell>
        <mxCell id="GPG2XtoRdds_Y4jV5bU0-33" value="+ __init__(board: Board): None" style="text;strokeColor=none;fillColor=none;align=left;verticalAlign=top;spacingLeft=4;spacingRight=4;overflow=hidden;rotatable=0;points=[[0,0.5],[1,0.5]];portConstraint=eastwest;whiteSpace=wrap;html=1;" parent="GPG2XtoRdds_Y4jV5bU0-30" vertex="1">
          <mxGeometry y="86" width="245" height="26" as="geometry" />
        </mxCell>
        <mxCell id="GPG2XtoRdds_Y4jV5bU0-34" value="+ set_strategy(strategy: Strategy): None" style="text;strokeColor=none;fillColor=none;align=left;verticalAlign=top;spacingLeft=4;spacingRight=4;overflow=hidden;rotatable=0;points=[[0,0.5],[1,0.5]];portConstraint=eastwest;whiteSpace=wrap;html=1;" parent="GPG2XtoRdds_Y4jV5bU0-30" vertex="1">
          <mxGeometry y="112" width="245" height="26" as="geometry" />
        </mxCell>
        <mxCell id="8kHbCz_opkoACt62hEL4-25" value="+ solve(): None" style="text;strokeColor=none;fillColor=none;align=left;verticalAlign=top;spacingLeft=4;spacingRight=4;overflow=hidden;rotatable=0;points=[[0,0.5],[1,0.5]];portConstraint=eastwest;whiteSpace=wrap;html=1;" vertex="1" parent="GPG2XtoRdds_Y4jV5bU0-30">
          <mxGeometry y="138" width="245" height="26" as="geometry" />
        </mxCell>
        <mxCell id="8kHbCz_opkoACt62hEL4-26" value="+ move(): None" style="text;strokeColor=none;fillColor=none;align=left;verticalAlign=top;spacingLeft=4;spacingRight=4;overflow=hidden;rotatable=0;points=[[0,0.5],[1,0.5]];portConstraint=eastwest;whiteSpace=wrap;html=1;" vertex="1" parent="GPG2XtoRdds_Y4jV5bU0-30">
          <mxGeometry y="164" width="245" height="26" as="geometry" />
        </mxCell>
        <mxCell id="8kHbCz_opkoACt62hEL4-27" value="+ open_unflagged(neighbors: list): None" style="text;strokeColor=none;fillColor=none;align=left;verticalAlign=top;spacingLeft=4;spacingRight=4;overflow=hidden;rotatable=0;points=[[0,0.5],[1,0.5]];portConstraint=eastwest;whiteSpace=wrap;html=1;" vertex="1" parent="GPG2XtoRdds_Y4jV5bU0-30">
          <mxGeometry y="190" width="245" height="26" as="geometry" />
        </mxCell>
        <mxCell id="8kHbCz_opkoACt62hEL4-28" value="+ flag_all(neighbors: list): None" style="text;strokeColor=none;fillColor=none;align=left;verticalAlign=top;spacingLeft=4;spacingRight=4;overflow=hidden;rotatable=0;points=[[0,0.5],[1,0.5]];portConstraint=eastwest;whiteSpace=wrap;html=1;" vertex="1" parent="GPG2XtoRdds_Y4jV5bU0-30">
          <mxGeometry y="216" width="245" height="26" as="geometry" />
        </mxCell>
        <mxCell id="8kHbCz_opkoACt62hEL4-29" value="TrivialSolver" style="swimlane;fontStyle=1;align=center;verticalAlign=top;childLayout=stackLayout;horizontal=1;startSize=26;horizontalStack=0;resizeParent=1;resizeParentMax=0;resizeLast=0;collapsible=1;marginBottom=0;whiteSpace=wrap;html=1;" vertex="1" parent="8kHbCz_opkoACt62hEL4-139">
          <mxGeometry x="695" width="400" height="216" as="geometry" />
        </mxCell>
        <mxCell id="8kHbCz_opkoACt62hEL4-30" value="- board: Board" style="text;strokeColor=none;fillColor=none;align=left;verticalAlign=top;spacingLeft=4;spacingRight=4;overflow=hidden;rotatable=0;points=[[0,0.5],[1,0.5]];portConstraint=eastwest;whiteSpace=wrap;html=1;" vertex="1" parent="8kHbCz_opkoACt62hEL4-29">
          <mxGeometry y="26" width="400" height="26" as="geometry" />
        </mxCell>
        <mxCell id="8kHbCz_opkoACt62hEL4-33" value="- flags_placed: int" style="text;strokeColor=none;fillColor=none;align=left;verticalAlign=top;spacingLeft=4;spacingRight=4;overflow=hidden;rotatable=0;points=[[0,0.5],[1,0.5]];portConstraint=eastwest;whiteSpace=wrap;html=1;" vertex="1" parent="8kHbCz_opkoACt62hEL4-29">
          <mxGeometry y="52" width="400" height="26" as="geometry" />
        </mxCell>
        <mxCell id="8kHbCz_opkoACt62hEL4-31" value="" style="line;strokeWidth=1;fillColor=none;align=left;verticalAlign=middle;spacingTop=-1;spacingLeft=3;spacingRight=3;rotatable=0;labelPosition=right;points=[];portConstraint=eastwest;strokeColor=inherit;" vertex="1" parent="8kHbCz_opkoACt62hEL4-29">
          <mxGeometry y="78" width="400" height="8" as="geometry" />
        </mxCell>
        <mxCell id="8kHbCz_opkoACt62hEL4-32" value="+ __init__ (board: Board): None" style="text;strokeColor=none;fillColor=none;align=left;verticalAlign=top;spacingLeft=4;spacingRight=4;overflow=hidden;rotatable=0;points=[[0,0.5],[1,0.5]];portConstraint=eastwest;whiteSpace=wrap;html=1;" vertex="1" parent="8kHbCz_opkoACt62hEL4-29">
          <mxGeometry y="86" width="400" height="26" as="geometry" />
        </mxCell>
        <mxCell id="8kHbCz_opkoACt62hEL4-34" value="+ get_flags_placed(): int" style="text;strokeColor=none;fillColor=none;align=left;verticalAlign=top;spacingLeft=4;spacingRight=4;overflow=hidden;rotatable=0;points=[[0,0.5],[1,0.5]];portConstraint=eastwest;whiteSpace=wrap;html=1;" vertex="1" parent="8kHbCz_opkoACt62hEL4-29">
          <mxGeometry y="112" width="400" height="26" as="geometry" />
        </mxCell>
        <mxCell id="8kHbCz_opkoACt62hEL4-35" value="+ select_random_tile(): tuple | None" style="text;strokeColor=none;fillColor=none;align=left;verticalAlign=top;spacingLeft=4;spacingRight=4;overflow=hidden;rotatable=0;points=[[0,0.5],[1,0.5]];portConstraint=eastwest;whiteSpace=wrap;html=1;" vertex="1" parent="8kHbCz_opkoACt62hEL4-29">
          <mxGeometry y="138" width="400" height="26" as="geometry" />
        </mxCell>
        <mxCell id="8kHbCz_opkoACt62hEL4-36" value="+ find_potentially_safe_tile(revealed_x: int, revealed_y: int): tuple | None" style="text;strokeColor=none;fillColor=none;align=left;verticalAlign=top;spacingLeft=4;spacingRight=4;overflow=hidden;rotatable=0;points=[[0,0.5],[1,0.5]];portConstraint=eastwest;whiteSpace=wrap;html=1;" vertex="1" parent="8kHbCz_opkoACt62hEL4-29">
          <mxGeometry y="164" width="400" height="26" as="geometry" />
        </mxCell>
        <mxCell id="8kHbCz_opkoACt62hEL4-37" value="+ solve(): None" style="text;strokeColor=none;fillColor=none;align=left;verticalAlign=top;spacingLeft=4;spacingRight=4;overflow=hidden;rotatable=0;points=[[0,0.5],[1,0.5]];portConstraint=eastwest;whiteSpace=wrap;html=1;" vertex="1" parent="8kHbCz_opkoACt62hEL4-29">
          <mxGeometry y="190" width="400" height="26" as="geometry" />
        </mxCell>
        <mxCell id="8kHbCz_opkoACt62hEL4-96" value="AdvancedSolver" style="swimlane;fontStyle=1;align=center;verticalAlign=top;childLayout=stackLayout;horizontal=1;startSize=26;horizontalStack=0;resizeParent=1;resizeParentMax=0;resizeLast=0;collapsible=1;marginBottom=0;whiteSpace=wrap;html=1;" vertex="1" parent="8kHbCz_opkoACt62hEL4-139">
          <mxGeometry x="320" y="130" width="340" height="398" as="geometry" />
        </mxCell>
        <mxCell id="8kHbCz_opkoACt62hEL4-97" value="- board: Board" style="text;strokeColor=none;fillColor=none;align=left;verticalAlign=top;spacingLeft=4;spacingRight=4;overflow=hidden;rotatable=0;points=[[0,0.5],[1,0.5]];portConstraint=eastwest;whiteSpace=wrap;html=1;" vertex="1" parent="8kHbCz_opkoACt62hEL4-96">
          <mxGeometry y="26" width="340" height="26" as="geometry" />
        </mxCell>
        <mxCell id="8kHbCz_opkoACt62hEL4-100" value="- safe_squares_to_probe: list[tuple[int, int]]" style="text;strokeColor=none;fillColor=none;align=left;verticalAlign=top;spacingLeft=4;spacingRight=4;overflow=hidden;rotatable=0;points=[[0,0.5],[1,0.5]];portConstraint=eastwest;whiteSpace=wrap;html=1;" vertex="1" parent="8kHbCz_opkoACt62hEL4-96">
          <mxGeometry y="52" width="340" height="26" as="geometry" />
        </mxCell>
        <mxCell id="8kHbCz_opkoACt62hEL4-101" value="- mines_identified: list[tuple[int, int]]" style="text;strokeColor=none;fillColor=none;align=left;verticalAlign=top;spacingLeft=4;spacingRight=4;overflow=hidden;rotatable=0;points=[[0,0.5],[1,0.5]];portConstraint=eastwest;whiteSpace=wrap;html=1;" vertex="1" parent="8kHbCz_opkoACt62hEL4-96">
          <mxGeometry y="78" width="340" height="26" as="geometry" />
        </mxCell>
        <mxCell id="8kHbCz_opkoACt62hEL4-102" value="- flags_placed: int" style="text;strokeColor=none;fillColor=none;align=left;verticalAlign=top;spacingLeft=4;spacingRight=4;overflow=hidden;rotatable=0;points=[[0,0.5],[1,0.5]];portConstraint=eastwest;whiteSpace=wrap;html=1;" vertex="1" parent="8kHbCz_opkoACt62hEL4-96">
          <mxGeometry y="104" width="340" height="26" as="geometry" />
        </mxCell>
        <mxCell id="8kHbCz_opkoACt62hEL4-98" value="" style="line;strokeWidth=1;fillColor=none;align=left;verticalAlign=middle;spacingTop=-1;spacingLeft=3;spacingRight=3;rotatable=0;labelPosition=right;points=[];portConstraint=eastwest;strokeColor=inherit;" vertex="1" parent="8kHbCz_opkoACt62hEL4-96">
          <mxGeometry y="130" width="340" height="8" as="geometry" />
        </mxCell>
        <mxCell id="8kHbCz_opkoACt62hEL4-99" value="+ flag_mines(): bool" style="text;strokeColor=none;fillColor=none;align=left;verticalAlign=top;spacingLeft=4;spacingRight=4;overflow=hidden;rotatable=0;points=[[0,0.5],[1,0.5]];portConstraint=eastwest;whiteSpace=wrap;html=1;" vertex="1" parent="8kHbCz_opkoACt62hEL4-96">
          <mxGeometry y="138" width="340" height="26" as="geometry" />
        </mxCell>
        <mxCell id="8kHbCz_opkoACt62hEL4-104" value="+ evaluate_border_cells(border_cells: list[tuple[int, int]]): bool" style="text;strokeColor=none;fillColor=none;align=left;verticalAlign=top;spacingLeft=4;spacingRight=4;overflow=hidden;rotatable=0;points=[[0,0.5],[1,0.5]];portConstraint=eastwest;whiteSpace=wrap;html=1;" vertex="1" parent="8kHbCz_opkoACt62hEL4-96">
          <mxGeometry y="164" width="340" height="26" as="geometry" />
        </mxCell>
        <mxCell id="8kHbCz_opkoACt62hEL4-105" value="+ count_flags_around(x: int, y: int): int" style="text;strokeColor=none;fillColor=none;align=left;verticalAlign=top;spacingLeft=4;spacingRight=4;overflow=hidden;rotatable=0;points=[[0,0.5],[1,0.5]];portConstraint=eastwest;whiteSpace=wrap;html=1;" vertex="1" parent="8kHbCz_opkoACt62hEL4-96">
          <mxGeometry y="190" width="340" height="26" as="geometry" />
        </mxCell>
        <mxCell id="8kHbCz_opkoACt62hEL4-106" value="+ find_hidden_tiles_around(x: int, y:int): list[tuple[int, int]]" style="text;strokeColor=none;fillColor=none;align=left;verticalAlign=top;spacingLeft=4;spacingRight=4;overflow=hidden;rotatable=0;points=[[0,0.5],[1,0.5]];portConstraint=eastwest;whiteSpace=wrap;html=1;" vertex="1" parent="8kHbCz_opkoACt62hEL4-96">
          <mxGeometry y="216" width="340" height="26" as="geometry" />
        </mxCell>
        <mxCell id="8kHbCz_opkoACt62hEL4-107" value="+ is_valid_coord(x: int, y:int): bool" style="text;strokeColor=none;fillColor=none;align=left;verticalAlign=top;spacingLeft=4;spacingRight=4;overflow=hidden;rotatable=0;points=[[0,0.5],[1,0.5]];portConstraint=eastwest;whiteSpace=wrap;html=1;" vertex="1" parent="8kHbCz_opkoACt62hEL4-96">
          <mxGeometry y="242" width="340" height="26" as="geometry" />
        </mxCell>
        <mxCell id="8kHbCz_opkoACt62hEL4-108" value="+ solve(): None" style="text;strokeColor=none;fillColor=none;align=left;verticalAlign=top;spacingLeft=4;spacingRight=4;overflow=hidden;rotatable=0;points=[[0,0.5],[1,0.5]];portConstraint=eastwest;whiteSpace=wrap;html=1;" vertex="1" parent="8kHbCz_opkoACt62hEL4-96">
          <mxGeometry y="268" width="340" height="26" as="geometry" />
        </mxCell>
        <mxCell id="8kHbCz_opkoACt62hEL4-109" value="+ get_flags_placed(): int" style="text;strokeColor=none;fillColor=none;align=left;verticalAlign=top;spacingLeft=4;spacingRight=4;overflow=hidden;rotatable=0;points=[[0,0.5],[1,0.5]];portConstraint=eastwest;whiteSpace=wrap;html=1;" vertex="1" parent="8kHbCz_opkoACt62hEL4-96">
          <mxGeometry y="294" width="340" height="26" as="geometry" />
        </mxCell>
        <mxCell id="8kHbCz_opkoACt62hEL4-110" value="+ find_border_cels(): list[tuple[int, int]]" style="text;strokeColor=none;fillColor=none;align=left;verticalAlign=top;spacingLeft=4;spacingRight=4;overflow=hidden;rotatable=0;points=[[0,0.5],[1,0.5]];portConstraint=eastwest;whiteSpace=wrap;html=1;" vertex="1" parent="8kHbCz_opkoACt62hEL4-96">
          <mxGeometry y="320" width="340" height="26" as="geometry" />
        </mxCell>
        <mxCell id="8kHbCz_opkoACt62hEL4-111" value="+ is_border_cell(x: int, y:int): bool" style="text;strokeColor=none;fillColor=none;align=left;verticalAlign=top;spacingLeft=4;spacingRight=4;overflow=hidden;rotatable=0;points=[[0,0.5],[1,0.5]];portConstraint=eastwest;whiteSpace=wrap;html=1;" vertex="1" parent="8kHbCz_opkoACt62hEL4-96">
          <mxGeometry y="346" width="340" height="26" as="geometry" />
        </mxCell>
        <mxCell id="8kHbCz_opkoACt62hEL4-112" value="+ act_on_findings(): None" style="text;strokeColor=none;fillColor=none;align=left;verticalAlign=top;spacingLeft=4;spacingRight=4;overflow=hidden;rotatable=0;points=[[0,0.5],[1,0.5]];portConstraint=eastwest;whiteSpace=wrap;html=1;" vertex="1" parent="8kHbCz_opkoACt62hEL4-96">
          <mxGeometry y="372" width="340" height="26" as="geometry" />
        </mxCell>
        <mxCell id="8kHbCz_opkoACt62hEL4-124" value="Use" style="endArrow=open;endSize=12;dashed=1;html=1;rounded=0;strokeWidth=2;entryX=0;entryY=0.25;entryDx=0;entryDy=0;exitX=0.998;exitY=0.074;exitDx=0;exitDy=0;exitPerimeter=0;" edge="1" parent="8kHbCz_opkoACt62hEL4-139" source="GPG2XtoRdds_Y4jV5bU0-30" target="8kHbCz_opkoACt62hEL4-63">
          <mxGeometry width="160" relative="1" as="geometry">
            <mxPoint x="245" y="20" as="sourcePoint" />
            <mxPoint x="405" y="20" as="targetPoint" />
          </mxGeometry>
        </mxCell>
        <mxCell id="8kHbCz_opkoACt62hEL4-63" value="&amp;lt;&amp;lt;Abstract&amp;gt;&amp;gt;&lt;br&gt;SolverStrategy" style="swimlane;fontStyle=1;align=center;verticalAlign=top;childLayout=stackLayout;horizontal=1;startSize=36;horizontalStack=0;resizeParent=1;resizeParentMax=0;resizeLast=0;collapsible=1;marginBottom=0;whiteSpace=wrap;html=1;" vertex="1" parent="8kHbCz_opkoACt62hEL4-139">
          <mxGeometry x="410" width="160" height="70" as="geometry" />
        </mxCell>
        <mxCell id="8kHbCz_opkoACt62hEL4-65" value="" style="line;strokeWidth=1;fillColor=none;align=left;verticalAlign=middle;spacingTop=-1;spacingLeft=3;spacingRight=3;rotatable=0;labelPosition=right;points=[];portConstraint=eastwest;strokeColor=inherit;" vertex="1" parent="8kHbCz_opkoACt62hEL4-63">
          <mxGeometry y="36" width="160" height="8" as="geometry" />
        </mxCell>
        <mxCell id="8kHbCz_opkoACt62hEL4-66" value="+ solve(): None" style="text;strokeColor=none;fillColor=none;align=left;verticalAlign=top;spacingLeft=4;spacingRight=4;overflow=hidden;rotatable=0;points=[[0,0.5],[1,0.5]];portConstraint=eastwest;whiteSpace=wrap;html=1;" vertex="1" parent="8kHbCz_opkoACt62hEL4-63">
          <mxGeometry y="44" width="160" height="26" as="geometry" />
        </mxCell>
        <mxCell id="8kHbCz_opkoACt62hEL4-127" value="" style="endArrow=block;endSize=16;endFill=0;html=1;rounded=0;exitX=0.856;exitY=0.953;exitDx=0;exitDy=0;exitPerimeter=0;strokeWidth=2;entryX=0.497;entryY=0.995;entryDx=0;entryDy=0;entryPerimeter=0;" edge="1" parent="8kHbCz_opkoACt62hEL4-139" target="8kHbCz_opkoACt62hEL4-66">
          <mxGeometry width="160" relative="1" as="geometry">
            <mxPoint x="489.28999999999996" y="130" as="sourcePoint" />
            <mxPoint x="489.45000000000005" y="77.77800000000002" as="targetPoint" />
          </mxGeometry>
        </mxCell>
        <mxCell id="8kHbCz_opkoACt62hEL4-128" value="" style="endArrow=block;endSize=16;endFill=0;html=1;rounded=0;strokeWidth=2;entryX=1;entryY=0.25;entryDx=0;entryDy=0;exitX=-0.001;exitY=0.081;exitDx=0;exitDy=0;exitPerimeter=0;" edge="1" parent="8kHbCz_opkoACt62hEL4-139" source="8kHbCz_opkoACt62hEL4-29" target="8kHbCz_opkoACt62hEL4-63">
          <mxGeometry width="160" relative="1" as="geometry">
            <mxPoint x="690" y="10" as="sourcePoint" />
            <mxPoint x="590.71" y="10" as="targetPoint" />
          </mxGeometry>
        </mxCell>
        <mxCell id="8kHbCz_opkoACt62hEL4-140" value="" style="endArrow=none;html=1;rounded=0;exitX=0.496;exitY=0.99;exitDx=0;exitDy=0;exitPerimeter=0;strokeWidth=2;" edge="1" parent="8kHbCz_opkoACt62hEL4-139" source="8kHbCz_opkoACt62hEL4-37">
          <mxGeometry relative="1" as="geometry">
            <mxPoint x="843.5" y="330" as="sourcePoint" />
            <mxPoint x="893.5" y="440" as="targetPoint" />
          </mxGeometry>
        </mxCell>
        <mxCell id="8kHbCz_opkoACt62hEL4-135" value="" style="endArrow=open;html=1;endSize=12;startArrow=none;startSize=14;startFill=0;edgeStyle=orthogonalEdgeStyle;align=left;verticalAlign=bottom;rounded=0;exitX=0.5;exitY=0;exitDx=0;exitDy=0;strokeWidth=2;entryX=0.006;entryY=1.075;entryDx=0;entryDy=0;entryPerimeter=0;" edge="1" parent="1" target="8kHbCz_opkoACt62hEL4-6">
          <mxGeometry x="-0.9787" y="-17" relative="1" as="geometry">
            <mxPoint x="-535.7" y="1200" as="sourcePoint" />
            <mxPoint x="440" y="940" as="targetPoint" />
            <Array as="points">
              <mxPoint x="-536" y="1140" />
              <mxPoint x="210" y="1140" />
              <mxPoint x="210" y="900" />
            </Array>
            <mxPoint as="offset" />
          </mxGeometry>
        </mxCell>
        <mxCell id="8kHbCz_opkoACt62hEL4-132" value="" style="endArrow=diamondThin;endFill=1;endSize=24;html=1;rounded=0;entryX=0.477;entryY=0.982;entryDx=0;entryDy=0;entryPerimeter=0;exitX=1;exitY=0.5;exitDx=0;exitDy=0;strokeWidth=2;" edge="1" parent="1" source="8kHbCz_opkoACt62hEL4-109" target="8kHbCz_opkoACt62hEL4-74">
          <mxGeometry width="160" relative="1" as="geometry">
            <mxPoint x="1155" y="1260" as="sourcePoint" />
            <mxPoint x="1150" y="1190" as="targetPoint" />
            <Array as="points">
              <mxPoint x="900" y="1637" />
              <mxPoint x="1154" y="1637" />
              <mxPoint x="1154" y="1420" />
            </Array>
          </mxGeometry>
        </mxCell>
        <mxCell id="8kHbCz_opkoACt62hEL4-136" value="" style="endArrow=open;html=1;endSize=12;startArrow=none;startSize=14;startFill=0;edgeStyle=orthogonalEdgeStyle;align=left;verticalAlign=bottom;rounded=0;exitX=0.009;exitY=-0.231;exitDx=0;exitDy=0;strokeWidth=2;exitPerimeter=0;" edge="1" parent="1">
          <mxGeometry x="-0.9787" y="-17" relative="1" as="geometry">
            <mxPoint x="-332.15999999999985" y="1504.9940000000001" as="sourcePoint" />
            <mxPoint x="480" y="850" as="targetPoint" />
            <Array as="points">
              <mxPoint x="-752" y="1505" />
              <mxPoint x="-752" y="1100" />
              <mxPoint x="158" y="1100" />
              <mxPoint x="158" y="850" />
              <mxPoint x="480" y="850" />
            </Array>
            <mxPoint as="offset" />
          </mxGeometry>
        </mxCell>
        <mxCell id="8kHbCz_opkoACt62hEL4-137" value="" style="endArrow=open;html=1;endSize=12;startArrow=none;startSize=14;startFill=0;edgeStyle=orthogonalEdgeStyle;align=left;verticalAlign=bottom;rounded=0;exitX=0.5;exitY=0;exitDx=0;exitDy=0;entryX=0;entryY=0.5;entryDx=0;entryDy=0;strokeWidth=2;" edge="1" parent="1">
          <mxGeometry x="-0.9787" y="-17" relative="1" as="geometry">
            <mxPoint x="240" y="1200" as="sourcePoint" />
            <mxPoint x="478.5" y="963" as="targetPoint" />
            <Array as="points">
              <mxPoint x="240" y="963" />
            </Array>
            <mxPoint as="offset" />
          </mxGeometry>
        </mxCell>
        <mxCell id="8kHbCz_opkoACt62hEL4-141" value="" style="group" vertex="1" connectable="0" parent="1">
          <mxGeometry x="640" y="60" width="347" height="145" as="geometry" />
        </mxCell>
        <mxCell id="GPG2XtoRdds_Y4jV5bU0-1" value="&lt;b&gt;&lt;font style=&quot;font-size: 36px;&quot;&gt;Logical View&lt;/font&gt;&lt;/b&gt;" style="text;html=1;strokeColor=none;fillColor=none;align=center;verticalAlign=middle;whiteSpace=wrap;rounded=0;" parent="8kHbCz_opkoACt62hEL4-141" vertex="1">
          <mxGeometry x="38.5" width="270" height="30" as="geometry" />
        </mxCell>
        <mxCell id="GPG2XtoRdds_Y4jV5bU0-2" value="&lt;font style=&quot;font-size: 16px;&quot;&gt;OOP&lt;br&gt;Minesweeper Solver&lt;br&gt;4+1&lt;br&gt;Mia Weber &amp;amp; Brandon Kamplain&lt;/font&gt;" style="text;html=1;strokeColor=none;fillColor=none;align=center;verticalAlign=middle;whiteSpace=wrap;rounded=0;" parent="8kHbCz_opkoACt62hEL4-141" vertex="1">
          <mxGeometry y="50" width="347" height="95" as="geometry" />
        </mxCell>
      </root>
    </mxGraphModel>
  </diagram>
</mxfile>
